# xmcd CD database file
#
# Track frame offsets:
#	150
#	19490
#	37784
#	54745
#	73088
#	85016
#	106280
#	130069
#	152484
#	171748
#	196505
#	214038
#	232716
#	243862
#	256822
#	268498
#
# Disc length: 3809 seconds
#
# Revision: 2
# Processed by: cddbd v1.5.2PL0 Copyright (c) Steve Scherf et al.
# Submitted via: jetAudio 7
#
DISCID=d30edf10
DTITLE=Various Artist - Chevrolet Legends Vol. 2
DYEAR=2008
DGENRE=Rock
TTITLE0=Chevrolet
TTITLE1=Lucky Kid
TTITLE2=How Bizarre
TTITLE3=She's In Love With The Boy
TTITLE4=Why Do We Want (What We Know We Can't Have)
TTITLE5=House Of Blue Light
TTITLE6=Picture Perfect
TTITLE7=Misled
TTITLE8=When You Close Your Eyes
TTITLE9=Ain't It A Shame
TTITLE10=Drive South
TTITLE11=Let You Go
TTITLE12=Nuthin' But A Chevy
TTITLE13=Brand New Day
TTITLE14=Chevy In Drive
TTITLE15=Down In Dixie
EXTD=
EXTT0=
EXTT1=
EXTT2=
EXTT3=
EXTT4=
EXTT5=
EXTT6=
EXTT7=
EXTT8=
EXTT9=
EXTT10=
EXTT11=
EXTT12=
EXTT13=
EXTT14=
EXTT15=
PLAYORDER=
